<?xml version="1.0" encoding="UTF-8" standalone="no"?>
<!DOCTYPE svg PUBLIC "-//W3C//DTD SVG 1.1//EN"
 "http://www.w3.org/Graphics/SVG/1.1/DTD/svg11.dtd">
<!-- Generated by graphviz version 5.0.1 (20220820.1526)
 -->
<!-- Title: G Pages: 1 -->
<svg width="909pt" height="66pt"
 viewBox="0.00 0.00 909.00 66.00" xmlns="http://www.w3.org/2000/svg" xmlns:xlink="http://www.w3.org/1999/xlink">
<g id="graph0" class="graph" transform="scale(1 1) rotate(0) translate(4 62)">
<title>G</title>
<polygon fill="white" stroke="none" points="-4,4 -4,-62 905,-62 905,4 -4,4"/>
<!-- tabla -->
<g id="node1" class="node">
<title>tabla</title>
<polygon fill="none" stroke="black" points="8.5,-4 8.5,-54 52.5,-54 52.5,-4 8.5,-4"/>
<text text-anchor="start" x="13.5" y="-26.3" font-family="Helvetica,Arial,sans-serif" font-weight="bold" font-size="14.00">MBR</text>
<polygon fill="none" stroke="black" points="52.5,-29 52.5,-54 435.5,-54 435.5,-29 52.5,-29"/>
<text text-anchor="start" x="180" y="-38.8" font-family="Helvetica,Arial,sans-serif" font-weight="bold" font-size="14.00">Extendida</text>
<text text-anchor="start" x="250" y="-38.8" font-family="Helvetica,Arial,sans-serif" font-size="14.00"> &#160;</text>
<text text-anchor="start" x="258" y="-38.8" font-family="Helvetica,Arial,sans-serif" font-weight="bold" font-size="14.00">24.75%</text>
<polygon fill="none" stroke="black" points="435.5,-4 435.5,-54 562.5,-54 562.5,-4 435.5,-4"/>
<text text-anchor="start" x="440.5" y="-26.3" font-family="Helvetica,Arial,sans-serif" font-weight="bold" font-size="14.00">Primaria</text>
<text text-anchor="start" x="499.5" y="-26.3" font-family="Helvetica,Arial,sans-serif" font-size="14.00"> &#160;</text>
<text text-anchor="start" x="507.5" y="-26.3" font-family="Helvetica,Arial,sans-serif" font-weight="bold" font-size="14.00">24.75%</text>
<polygon fill="none" stroke="black" points="562.5,-4 562.5,-54 689.5,-54 689.5,-4 562.5,-4"/>
<text text-anchor="start" x="567.5" y="-26.3" font-family="Helvetica,Arial,sans-serif" font-weight="bold" font-size="14.00">Primaria</text>
<text text-anchor="start" x="626.5" y="-26.3" font-family="Helvetica,Arial,sans-serif" font-size="14.00"> &#160;</text>
<text text-anchor="start" x="634.5" y="-26.3" font-family="Helvetica,Arial,sans-serif" font-weight="bold" font-size="14.00">24.75%</text>
<polygon fill="none" stroke="black" points="689.5,-4 689.5,-54 816.5,-54 816.5,-4 689.5,-4"/>
<text text-anchor="start" x="694.5" y="-26.3" font-family="Helvetica,Arial,sans-serif" font-weight="bold" font-size="14.00">Primaria</text>
<text text-anchor="start" x="753.5" y="-26.3" font-family="Helvetica,Arial,sans-serif" font-size="14.00"> &#160;</text>
<text text-anchor="start" x="761.5" y="-26.3" font-family="Helvetica,Arial,sans-serif" font-weight="bold" font-size="14.00">24.75%</text>
<polygon fill="none" stroke="black" points="816.5,-4 816.5,-54 893.5,-54 893.5,-4 816.5,-4"/>
<text text-anchor="start" x="821.5" y="-26.3" font-family="Helvetica,Arial,sans-serif" font-weight="bold" font-size="14.00">nil</text>
<text text-anchor="start" x="838.5" y="-26.3" font-family="Helvetica,Arial,sans-serif" font-size="14.00"> &#160;</text>
<text text-anchor="start" x="846.5" y="-26.3" font-family="Helvetica,Arial,sans-serif" font-weight="bold" font-size="14.00">0.99%</text>
<polygon fill="none" stroke="black" points="52.5,-4 52.5,-29 93.5,-29 93.5,-4 52.5,-4"/>
<text text-anchor="start" x="57.5" y="-13.8" font-family="Helvetica,Arial,sans-serif" font-weight="bold" font-size="14.00">EBR</text>
<polygon fill="none" stroke="black" points="93.5,-4 93.5,-29 201.5,-29 201.5,-4 93.5,-4"/>
<text text-anchor="start" x="98.5" y="-13.8" font-family="Helvetica,Arial,sans-serif" font-weight="bold" font-size="14.00">Logica</text>
<text text-anchor="start" x="146.5" y="-13.8" font-family="Helvetica,Arial,sans-serif" font-size="14.00"> &#160;</text>
<text text-anchor="start" x="154.5" y="-13.8" font-family="Helvetica,Arial,sans-serif" font-weight="bold" font-size="14.00">0.99%</text>
<polygon fill="none" stroke="black" points="201.5,-4 201.5,-29 242.5,-29 242.5,-4 201.5,-4"/>
<text text-anchor="start" x="206.5" y="-13.8" font-family="Helvetica,Arial,sans-serif" font-weight="bold" font-size="14.00">EBR</text>
<polygon fill="none" stroke="black" points="242.5,-4 242.5,-29 350.5,-29 350.5,-4 242.5,-4"/>
<text text-anchor="start" x="247.5" y="-13.8" font-family="Helvetica,Arial,sans-serif" font-weight="bold" font-size="14.00">Logica</text>
<text text-anchor="start" x="295.5" y="-13.8" font-family="Helvetica,Arial,sans-serif" font-size="14.00"> &#160;</text>
<text text-anchor="start" x="303.5" y="-13.8" font-family="Helvetica,Arial,sans-serif" font-weight="bold" font-size="14.00">0.99%</text>
<polygon fill="none" stroke="black" points="350.5,-4 350.5,-29 435.5,-29 435.5,-4 350.5,-4"/>
<text text-anchor="start" x="355.5" y="-13.8" font-family="Helvetica,Arial,sans-serif" font-weight="bold" font-size="14.00">nil</text>
<text text-anchor="start" x="372.5" y="-13.8" font-family="Helvetica,Arial,sans-serif" font-size="14.00"> &#160;</text>
<text text-anchor="start" x="380.5" y="-13.8" font-family="Helvetica,Arial,sans-serif" font-weight="bold" font-size="14.00">22.77%</text>
</g>
</g>
</svg>
