<?xml version="1.0" encoding="UTF-8" standalone="no"?>
<!DOCTYPE svg PUBLIC "-//W3C//DTD SVG 1.1//EN"
 "http://www.w3.org/Graphics/SVG/1.1/DTD/svg11.dtd">
<!-- Generated by graphviz version 5.0.1 (20220820.1526)
 -->
<!-- Title: G Pages: 1 -->
<svg width="239pt" height="688pt"
 viewBox="0.00 0.00 239.00 688.00" xmlns="http://www.w3.org/2000/svg" xmlns:xlink="http://www.w3.org/1999/xlink">
<g id="graph0" class="graph" transform="scale(1 1) rotate(0) translate(4 684)">
<title>G</title>
<polygon fill="white" stroke="none" points="-4,4 -4,-684 235,-684 235,4 -4,4"/>
<!-- tabla -->
<g id="node1" class="node">
<title>tabla</title>
<polygon fill="none" stroke="black" points="8.5,-655 8.5,-676 223.5,-676 223.5,-655 8.5,-655"/>
<text text-anchor="start" x="55.5" y="-661.8" font-family="Times New Roman,serif" font-size="14.00">REPORTE DE MBR</text>
<polygon fill="none" stroke="black" points="8.5,-634 8.5,-655 103.5,-655 103.5,-634 8.5,-634"/>
<text text-anchor="start" x="33" y="-640.8" font-family="Times New Roman,serif" font-size="14.00">Tamano</text>
<polygon fill="none" stroke="black" points="103.5,-634 103.5,-655 223.5,-655 223.5,-634 103.5,-634"/>
<text text-anchor="start" x="136" y="-640.8" font-family="Times New Roman,serif" font-size="14.00">78643200</text>
<polygon fill="none" stroke="black" points="8.5,-613 8.5,-634 103.5,-634 103.5,-613 8.5,-613"/>
<text text-anchor="start" x="11.5" y="-619.8" font-family="Times New Roman,serif" font-size="14.00">Fecha_creacion</text>
<polygon fill="none" stroke="black" points="103.5,-613 103.5,-634 223.5,-634 223.5,-613 103.5,-613"/>
<text text-anchor="start" x="106.5" y="-619.8" font-family="Times New Roman,serif" font-size="14.00">2023&#45;10&#45;28 23:37:46</text>
<polygon fill="none" stroke="black" points="8.5,-592 8.5,-613 103.5,-613 103.5,-592 8.5,-592"/>
<text text-anchor="start" x="14.5" y="-598.8" font-family="Times New Roman,serif" font-size="14.00">Disk_signature</text>
<polygon fill="none" stroke="black" points="103.5,-592 103.5,-613 223.5,-613 223.5,-592 103.5,-592"/>
<text text-anchor="start" x="149.5" y="-598.8" font-family="Times New Roman,serif" font-size="14.00">2765</text>
<polygon fill="none" stroke="black" points="8.5,-571 8.5,-592 223.5,-592 223.5,-571 8.5,-571"/>
<text text-anchor="start" x="91" y="-577.8" font-family="Times New Roman,serif" font-size="14.00">Particion</text>
<polygon fill="none" stroke="black" points="8.5,-550 8.5,-571 103.5,-571 103.5,-550 8.5,-550"/>
<text text-anchor="start" x="38.5" y="-556.8" font-family="Times New Roman,serif" font-size="14.00">Status</text>
<polygon fill="none" stroke="black" points="103.5,-550 103.5,-571 223.5,-571 223.5,-550 103.5,-550"/>
<text text-anchor="start" x="160" y="-556.8" font-family="Times New Roman,serif" font-size="14.00">1</text>
<polygon fill="none" stroke="black" points="8.5,-529 8.5,-550 103.5,-550 103.5,-529 8.5,-529"/>
<text text-anchor="start" x="41" y="-535.8" font-family="Times New Roman,serif" font-size="14.00">Type</text>
<polygon fill="none" stroke="black" points="103.5,-529 103.5,-550 223.5,-550 223.5,-529 103.5,-529"/>
<text text-anchor="start" x="159" y="-535.8" font-family="Times New Roman,serif" font-size="14.00">P</text>
<polygon fill="none" stroke="black" points="8.5,-508 8.5,-529 103.5,-529 103.5,-508 8.5,-508"/>
<text text-anchor="start" x="48" y="-514.8" font-family="Times New Roman,serif" font-size="14.00">Fit</text>
<polygon fill="none" stroke="black" points="103.5,-508 103.5,-529 223.5,-529 223.5,-508 103.5,-508"/>
<text text-anchor="start" x="152.5" y="-514.8" font-family="Times New Roman,serif" font-size="14.00">WF</text>
<polygon fill="none" stroke="black" points="8.5,-487 8.5,-508 103.5,-508 103.5,-487 8.5,-487"/>
<text text-anchor="start" x="42.5" y="-493.8" font-family="Times New Roman,serif" font-size="14.00">Start</text>
<polygon fill="none" stroke="black" points="103.5,-487 103.5,-508 223.5,-508 223.5,-487 103.5,-487"/>
<text text-anchor="start" x="134" y="-493.8" font-family="Times New Roman,serif" font-size="14.00">#AE9EFA</text>
<polygon fill="none" stroke="black" points="8.5,-466 8.5,-487 103.5,-487 103.5,-466 8.5,-466"/>
<text text-anchor="start" x="44" y="-472.8" font-family="Times New Roman,serif" font-size="14.00">Size</text>
<polygon fill="none" stroke="black" points="103.5,-466 103.5,-487 223.5,-487 223.5,-466 103.5,-466"/>
<text text-anchor="start" x="136" y="-472.8" font-family="Times New Roman,serif" font-size="14.00">26214400</text>
<polygon fill="none" stroke="black" points="8.5,-445 8.5,-466 103.5,-466 103.5,-445 8.5,-445"/>
<text text-anchor="start" x="39.5" y="-451.8" font-family="Times New Roman,serif" font-size="14.00">Name</text>
<polygon fill="none" stroke="black" points="103.5,-445 103.5,-466 223.5,-466 223.5,-445 103.5,-445"/>
<text text-anchor="start" x="148.5" y="-451.8" font-family="Times New Roman,serif" font-size="14.00">Part1</text>
<polygon fill="none" stroke="black" points="8.5,-424 8.5,-445 223.5,-445 223.5,-424 8.5,-424"/>
<text text-anchor="start" x="91" y="-430.8" font-family="Times New Roman,serif" font-size="14.00">Particion</text>
<polygon fill="none" stroke="black" points="8.5,-403 8.5,-424 103.5,-424 103.5,-403 8.5,-403"/>
<text text-anchor="start" x="38.5" y="-409.8" font-family="Times New Roman,serif" font-size="14.00">Status</text>
<polygon fill="none" stroke="black" points="103.5,-403 103.5,-424 223.5,-424 223.5,-403 103.5,-403"/>
<text text-anchor="start" x="160" y="-409.8" font-family="Times New Roman,serif" font-size="14.00">1</text>
<polygon fill="none" stroke="black" points="8.5,-382 8.5,-403 103.5,-403 103.5,-382 8.5,-382"/>
<text text-anchor="start" x="41" y="-388.8" font-family="Times New Roman,serif" font-size="14.00">Type</text>
<polygon fill="none" stroke="black" points="103.5,-382 103.5,-403 223.5,-403 223.5,-382 103.5,-382"/>
<text text-anchor="start" x="159" y="-388.8" font-family="Times New Roman,serif" font-size="14.00">P</text>
<polygon fill="none" stroke="black" points="8.5,-361 8.5,-382 103.5,-382 103.5,-361 8.5,-361"/>
<text text-anchor="start" x="48" y="-367.8" font-family="Times New Roman,serif" font-size="14.00">Fit</text>
<polygon fill="none" stroke="black" points="103.5,-361 103.5,-382 223.5,-382 223.5,-361 103.5,-361"/>
<text text-anchor="start" x="152.5" y="-367.8" font-family="Times New Roman,serif" font-size="14.00">WF</text>
<polygon fill="none" stroke="black" points="8.5,-340 8.5,-361 103.5,-361 103.5,-340 8.5,-340"/>
<text text-anchor="start" x="42.5" y="-346.8" font-family="Times New Roman,serif" font-size="14.00">Start</text>
<polygon fill="none" stroke="black" points="103.5,-340 103.5,-361 223.5,-361 223.5,-340 103.5,-340"/>
<text text-anchor="start" x="134" y="-346.8" font-family="Times New Roman,serif" font-size="14.00">#AE9EFA</text>
<polygon fill="none" stroke="black" points="8.5,-319 8.5,-340 103.5,-340 103.5,-319 8.5,-319"/>
<text text-anchor="start" x="44" y="-325.8" font-family="Times New Roman,serif" font-size="14.00">Size</text>
<polygon fill="none" stroke="black" points="103.5,-319 103.5,-340 223.5,-340 223.5,-319 103.5,-319"/>
<text text-anchor="start" x="136" y="-325.8" font-family="Times New Roman,serif" font-size="14.00">26214400</text>
<polygon fill="none" stroke="black" points="8.5,-298 8.5,-319 103.5,-319 103.5,-298 8.5,-298"/>
<text text-anchor="start" x="39.5" y="-304.8" font-family="Times New Roman,serif" font-size="14.00">Name</text>
<polygon fill="none" stroke="black" points="103.5,-298 103.5,-319 223.5,-319 223.5,-298 103.5,-298"/>
<text text-anchor="start" x="148.5" y="-304.8" font-family="Times New Roman,serif" font-size="14.00">Part2</text>
<polygon fill="none" stroke="black" points="8.5,-277 8.5,-298 223.5,-298 223.5,-277 8.5,-277"/>
<text text-anchor="start" x="91" y="-283.8" font-family="Times New Roman,serif" font-size="14.00">Particion</text>
<polygon fill="none" stroke="black" points="8.5,-256 8.5,-277 103.5,-277 103.5,-256 8.5,-256"/>
<text text-anchor="start" x="38.5" y="-262.8" font-family="Times New Roman,serif" font-size="14.00">Status</text>
<polygon fill="none" stroke="black" points="103.5,-256 103.5,-277 223.5,-277 223.5,-256 103.5,-256"/>
<text text-anchor="start" x="160" y="-262.8" font-family="Times New Roman,serif" font-size="14.00">1</text>
<polygon fill="none" stroke="black" points="8.5,-235 8.5,-256 103.5,-256 103.5,-235 8.5,-235"/>
<text text-anchor="start" x="41" y="-241.8" font-family="Times New Roman,serif" font-size="14.00">Type</text>
<polygon fill="none" stroke="black" points="103.5,-235 103.5,-256 223.5,-256 223.5,-235 103.5,-235"/>
<text text-anchor="start" x="159" y="-241.8" font-family="Times New Roman,serif" font-size="14.00">P</text>
<polygon fill="none" stroke="black" points="8.5,-214 8.5,-235 103.5,-235 103.5,-214 8.5,-214"/>
<text text-anchor="start" x="48" y="-220.8" font-family="Times New Roman,serif" font-size="14.00">Fit</text>
<polygon fill="none" stroke="black" points="103.5,-214 103.5,-235 223.5,-235 223.5,-214 103.5,-214"/>
<text text-anchor="start" x="152.5" y="-220.8" font-family="Times New Roman,serif" font-size="14.00">WF</text>
<polygon fill="none" stroke="black" points="8.5,-193 8.5,-214 103.5,-214 103.5,-193 8.5,-193"/>
<text text-anchor="start" x="42.5" y="-199.8" font-family="Times New Roman,serif" font-size="14.00">Start</text>
<polygon fill="none" stroke="black" points="103.5,-193 103.5,-214 223.5,-214 223.5,-193 103.5,-193"/>
<text text-anchor="start" x="134" y="-199.8" font-family="Times New Roman,serif" font-size="14.00">#AE9EFA</text>
<polygon fill="none" stroke="black" points="8.5,-172 8.5,-193 103.5,-193 103.5,-172 8.5,-172"/>
<text text-anchor="start" x="44" y="-178.8" font-family="Times New Roman,serif" font-size="14.00">Size</text>
<polygon fill="none" stroke="black" points="103.5,-172 103.5,-193 223.5,-193 223.5,-172 103.5,-172"/>
<text text-anchor="start" x="136" y="-178.8" font-family="Times New Roman,serif" font-size="14.00">20971520</text>
<polygon fill="none" stroke="black" points="8.5,-151 8.5,-172 103.5,-172 103.5,-151 8.5,-151"/>
<text text-anchor="start" x="39.5" y="-157.8" font-family="Times New Roman,serif" font-size="14.00">Name</text>
<polygon fill="none" stroke="black" points="103.5,-151 103.5,-172 223.5,-172 223.5,-151 103.5,-151"/>
<text text-anchor="start" x="148.5" y="-157.8" font-family="Times New Roman,serif" font-size="14.00">Part3</text>
<polygon fill="none" stroke="black" points="8.5,-130 8.5,-151 223.5,-151 223.5,-130 8.5,-130"/>
<text text-anchor="start" x="91" y="-136.8" font-family="Times New Roman,serif" font-size="14.00">Particion</text>
<polygon fill="none" stroke="black" points="8.5,-109 8.5,-130 103.5,-130 103.5,-109 8.5,-109"/>
<text text-anchor="start" x="38.5" y="-115.8" font-family="Times New Roman,serif" font-size="14.00">Status</text>
<polygon fill="none" stroke="black" points="103.5,-109 103.5,-130 223.5,-130 223.5,-109 103.5,-109"/>
<text text-anchor="start" x="160" y="-115.8" font-family="Times New Roman,serif" font-size="14.00">0</text>
<polygon fill="none" stroke="black" points="8.5,-88 8.5,-109 103.5,-109 103.5,-88 8.5,-88"/>
<text text-anchor="start" x="41" y="-94.8" font-family="Times New Roman,serif" font-size="14.00">Type</text>
<polygon fill="none" stroke="black" points="103.5,-88 103.5,-109 223.5,-109 223.5,-88 103.5,-88"/>
<text text-anchor="start" x="159" y="-94.8" font-family="Times New Roman,serif" font-size="14.00">P</text>
<polygon fill="none" stroke="black" points="8.5,-67 8.5,-88 103.5,-88 103.5,-67 8.5,-67"/>
<text text-anchor="start" x="48" y="-73.8" font-family="Times New Roman,serif" font-size="14.00">Fit</text>
<polygon fill="none" stroke="black" points="103.5,-67 103.5,-88 223.5,-88 223.5,-67 103.5,-67"/>
<text text-anchor="start" x="159.5" y="-73.8" font-family="Times New Roman,serif" font-size="14.00">_</text>
<polygon fill="none" stroke="black" points="8.5,-46 8.5,-67 103.5,-67 103.5,-46 8.5,-46"/>
<text text-anchor="start" x="42.5" y="-52.8" font-family="Times New Roman,serif" font-size="14.00">Start</text>
<polygon fill="none" stroke="black" points="103.5,-46 103.5,-67 223.5,-67 223.5,-46 103.5,-46"/>
<text text-anchor="start" x="134" y="-52.8" font-family="Times New Roman,serif" font-size="14.00">#AE9EFA</text>
<polygon fill="none" stroke="black" points="8.5,-25 8.5,-46 103.5,-46 103.5,-25 8.5,-25"/>
<text text-anchor="start" x="44" y="-31.8" font-family="Times New Roman,serif" font-size="14.00">Size</text>
<polygon fill="none" stroke="black" points="103.5,-25 103.5,-46 223.5,-46 223.5,-25 103.5,-25"/>
<text text-anchor="start" x="157.5" y="-31.8" font-family="Times New Roman,serif" font-size="14.00">&#45;1</text>
<polygon fill="none" stroke="black" points="8.5,-4 8.5,-25 103.5,-25 103.5,-4 8.5,-4"/>
<text text-anchor="start" x="39.5" y="-10.8" font-family="Times New Roman,serif" font-size="14.00">Name</text>
<polygon fill="none" stroke="black" points="103.5,-4 103.5,-25 223.5,-25 223.5,-4 103.5,-4"/>
</g>
</g>
</svg>
