<?xml version="1.0" encoding="UTF-8" standalone="no"?>
<!DOCTYPE svg PUBLIC "-//W3C//DTD SVG 1.1//EN"
 "http://www.w3.org/Graphics/SVG/1.1/DTD/svg11.dtd">
<!-- Generated by graphviz version 5.0.1 (20220820.1526)
 -->
<!-- Title: H Pages: 1 -->
<svg width="314pt" height="479pt"
 viewBox="0.00 0.00 314.00 479.00" xmlns="http://www.w3.org/2000/svg" xmlns:xlink="http://www.w3.org/1999/xlink">
<g id="graph0" class="graph" transform="scale(1 1) rotate(0) translate(36 443)">
<title>H</title>
<polygon fill="white" stroke="none" points="-36,36 -36,-443 278,-443 278,36 -36,36"/>
<!-- SuperBloque -->
<g id="node1" class="node">
<title>SuperBloque</title>
<polygon fill="none" stroke="black" points="8,-381.5 8,-402.5 234,-402.5 234,-381.5 8,-381.5"/>
<text text-anchor="start" x="84.5" y="-388.3" font-family="Times New Roman,serif" font-size="14.00">SuperBloque</text>
<polygon fill="none" stroke="black" points="8,-360.5 8,-381.5 114,-381.5 114,-360.5 8,-360.5"/>
<text text-anchor="start" x="28.5" y="-367.3" font-family="Times New Roman,serif" font-size="14.00">nombre_hd</text>
<polygon fill="none" stroke="black" points="114,-360.5 114,-381.5 234,-381.5 234,-360.5 114,-360.5"/>
<text text-anchor="start" x="142" y="-367.3" font-family="Times New Roman,serif" font-size="14.00">Disco1.dsk</text>
<polygon fill="none" stroke="black" points="8,-339.5 8,-360.5 114,-360.5 114,-339.5 8,-339.5"/>
<text text-anchor="start" x="16" y="-346.3" font-family="Times New Roman,serif" font-size="14.00">fileSystem_type</text>
<polygon fill="none" stroke="black" points="114,-339.5 114,-360.5 234,-360.5 234,-339.5 114,-339.5"/>
<text text-anchor="start" x="170.5" y="-346.3" font-family="Times New Roman,serif" font-size="14.00">2</text>
<polygon fill="none" stroke="black" points="8,-318.5 8,-339.5 114,-339.5 114,-318.5 8,-318.5"/>
<text text-anchor="start" x="23" y="-325.3" font-family="Times New Roman,serif" font-size="14.00">inodes_count</text>
<polygon fill="none" stroke="black" points="114,-318.5 114,-339.5 234,-339.5 234,-318.5 114,-318.5"/>
<text text-anchor="start" x="170.5" y="-325.3" font-family="Times New Roman,serif" font-size="14.00">0</text>
<polygon fill="none" stroke="black" points="8,-297.5 8,-318.5 114,-318.5 114,-297.5 8,-297.5"/>
<text text-anchor="start" x="22.5" y="-304.3" font-family="Times New Roman,serif" font-size="14.00">blocks_count</text>
<polygon fill="none" stroke="black" points="114,-297.5 114,-318.5 234,-318.5 234,-297.5 114,-297.5"/>
<text text-anchor="start" x="170.5" y="-304.3" font-family="Times New Roman,serif" font-size="14.00">0</text>
<polygon fill="none" stroke="black" points="8,-276.5 8,-297.5 114,-297.5 114,-276.5 8,-276.5"/>
<text text-anchor="start" x="11" y="-283.3" font-family="Times New Roman,serif" font-size="14.00">freeBlocks_count</text>
<polygon fill="none" stroke="black" points="114,-276.5 114,-297.5 234,-297.5 234,-276.5 114,-276.5"/>
<text text-anchor="start" x="157" y="-283.3" font-family="Times New Roman,serif" font-size="14.00">26476</text>
<polygon fill="none" stroke="black" points="8,-255.5 8,-276.5 114,-276.5 114,-255.5 8,-255.5"/>
<text text-anchor="start" x="11.5" y="-262.3" font-family="Times New Roman,serif" font-size="14.00">freeInodes_count</text>
<polygon fill="none" stroke="black" points="114,-255.5 114,-276.5 234,-276.5 234,-255.5 114,-255.5"/>
<text text-anchor="start" x="157" y="-262.3" font-family="Times New Roman,serif" font-size="14.00">79432</text>
<polygon fill="none" stroke="black" points="8,-234.5 8,-255.5 114,-255.5 114,-234.5 8,-234.5"/>
<text text-anchor="start" x="41" y="-241.3" font-family="Times New Roman,serif" font-size="14.00">mTime</text>
<polygon fill="none" stroke="black" points="114,-234.5 114,-255.5 234,-255.5 234,-234.5 114,-234.5"/>
<text text-anchor="start" x="117" y="-241.3" font-family="Times New Roman,serif" font-size="14.00">2023&#45;10&#45;28 23:34:52</text>
<polygon fill="none" stroke="black" points="8,-213.5 8,-234.5 114,-234.5 114,-213.5 8,-213.5"/>
<text text-anchor="start" x="38" y="-220.3" font-family="Times New Roman,serif" font-size="14.00">umTime</text>
<polygon fill="none" stroke="black" points="114,-213.5 114,-234.5 234,-234.5 234,-213.5 114,-213.5"/>
<text text-anchor="start" x="117" y="-220.3" font-family="Times New Roman,serif" font-size="14.00">2023&#45;10&#45;28 23:34:52</text>
<polygon fill="none" stroke="black" points="8,-192.5 8,-213.5 114,-213.5 114,-192.5 8,-192.5"/>
<text text-anchor="start" x="30.5" y="-199.3" font-family="Times New Roman,serif" font-size="14.00">mnt_count</text>
<polygon fill="none" stroke="black" points="114,-192.5 114,-213.5 234,-213.5 234,-192.5 114,-192.5"/>
<text text-anchor="start" x="165" y="-199.3" font-family="Times New Roman,serif" font-size="14.00">1.0</text>
<polygon fill="none" stroke="black" points="8,-171.5 8,-192.5 114,-192.5 114,-171.5 8,-171.5"/>
<text text-anchor="start" x="44" y="-178.3" font-family="Times New Roman,serif" font-size="14.00">magic</text>
<polygon fill="none" stroke="black" points="114,-171.5 114,-192.5 234,-192.5 234,-171.5 114,-171.5"/>
<text text-anchor="start" x="157" y="-178.3" font-family="Times New Roman,serif" font-size="14.00">61267</text>
<polygon fill="none" stroke="black" points="8,-150.5 8,-171.5 114,-171.5 114,-150.5 8,-150.5"/>
<text text-anchor="start" x="38.5" y="-157.3" font-family="Times New Roman,serif" font-size="14.00">inode_s</text>
<polygon fill="none" stroke="black" points="114,-150.5 114,-171.5 234,-171.5 234,-150.5 114,-150.5"/>
<text text-anchor="start" x="163.5" y="-157.3" font-family="Times New Roman,serif" font-size="14.00">101</text>
<polygon fill="none" stroke="black" points="8,-129.5 8,-150.5 114,-150.5 114,-129.5 8,-129.5"/>
<text text-anchor="start" x="38" y="-136.3" font-family="Times New Roman,serif" font-size="14.00">block_s</text>
<polygon fill="none" stroke="black" points="114,-129.5 114,-150.5 234,-150.5 234,-129.5 114,-129.5"/>
<text text-anchor="start" x="167" y="-136.3" font-family="Times New Roman,serif" font-size="14.00">64</text>
<polygon fill="none" stroke="black" points="8,-108.5 8,-129.5 114,-129.5 114,-108.5 8,-108.5"/>
<text text-anchor="start" x="37.5" y="-115.3" font-family="Times New Roman,serif" font-size="14.00">first_ino</text>
<polygon fill="none" stroke="black" points="114,-108.5 114,-129.5 234,-129.5 234,-108.5 114,-108.5"/>
<text text-anchor="start" x="170.5" y="-115.3" font-family="Times New Roman,serif" font-size="14.00">0</text>
<polygon fill="none" stroke="black" points="8,-87.5 8,-108.5 114,-108.5 114,-87.5 8,-87.5"/>
<text text-anchor="start" x="37" y="-94.3" font-family="Times New Roman,serif" font-size="14.00">first_bio</text>
<polygon fill="none" stroke="black" points="114,-87.5 114,-108.5 234,-108.5 234,-87.5 114,-87.5"/>
<text text-anchor="start" x="170.5" y="-94.3" font-family="Times New Roman,serif" font-size="14.00">0</text>
<polygon fill="none" stroke="black" points="8,-66.5 8,-87.5 114,-87.5 114,-66.5 8,-66.5"/>
<text text-anchor="start" x="20" y="-73.3" font-family="Times New Roman,serif" font-size="14.00">bmInode_start</text>
<polygon fill="none" stroke="black" points="114,-66.5 114,-87.5 234,-87.5 234,-66.5 114,-66.5"/>
<text text-anchor="start" x="163.5" y="-73.3" font-family="Times New Roman,serif" font-size="14.00">210</text>
<polygon fill="none" stroke="black" points="8,-45.5 8,-66.5 114,-66.5 114,-45.5 8,-45.5"/>
<text text-anchor="start" x="19.5" y="-52.3" font-family="Times New Roman,serif" font-size="14.00">bmBlock_start</text>
<polygon fill="none" stroke="black" points="114,-45.5 114,-66.5 234,-66.5 234,-45.5 114,-45.5"/>
<text text-anchor="start" x="157" y="-52.3" font-family="Times New Roman,serif" font-size="14.00">26688</text>
<polygon fill="none" stroke="black" points="8,-24.5 8,-45.5 114,-45.5 114,-24.5 8,-24.5"/>
<text text-anchor="start" x="29.5" y="-31.3" font-family="Times New Roman,serif" font-size="14.00">inode_start</text>
<polygon fill="none" stroke="black" points="114,-24.5 114,-45.5 234,-45.5 234,-24.5 114,-24.5"/>
<text text-anchor="start" x="153.5" y="-31.3" font-family="Times New Roman,serif" font-size="14.00">106122</text>
<polygon fill="none" stroke="black" points="8,-3.5 8,-24.5 114,-24.5 114,-3.5 8,-3.5"/>
<text text-anchor="start" x="29" y="-10.3" font-family="Times New Roman,serif" font-size="14.00">block_start</text>
<polygon fill="none" stroke="black" points="114,-3.5 114,-24.5 234,-24.5 234,-3.5 114,-3.5"/>
<text text-anchor="start" x="150" y="-10.3" font-family="Times New Roman,serif" font-size="14.00">2780400</text>
</g>
</g>
</svg>
